<svg xmlns="http://www.w3.org/2000/svg" width="30" height="32" viewBox="0 0 30 32">
  <metadata><?xpacket begin="﻿" id="W5M0MpCehiHzreSzNTczkc9d"?>
<x:xmpmeta xmlns:x="adobe:ns:meta/" x:xmptk="Adobe XMP Core 5.6-c138 79.159824, 2016/09/14-01:09:01        ">
   <rdf:RDF xmlns:rdf="http://www.w3.org/1999/02/22-rdf-syntax-ns#">
      <rdf:Description rdf:about=""/>
   </rdf:RDF>
</x:xmpmeta>
                                                                                                    
                                                                                                    
                                                                                                    
                                                                                                    
                                                                                                    
                                                                                                    
                                                                                                    
                                                                                                    
                                                                                                    
                                                                                                    
                                                                                                    
                                                                                                    
                                                                                                    
                                                                                                    
                                                                                                    
                                                                                                    
                                                                                                    
                                                                                                    
                                                                                                    
                                                                                                    
                           
<?xpacket end="w"?></metadata>
<defs>
    <style>
      .cls-1 {
        fill: #fff;
        fill-rule: evenodd;
      }
    </style>
  </defs>
  <path id="Funnel" class="cls-1" d="M705,157c-3.519,0-15,.325-15,4.5v3a1.506,1.506,0,0,0,.144.643A25.412,25.412,0,0,0,701,176.58V186a1.491,1.491,0,0,0,.177.707,4.333,4.333,0,0,0,7.646,0A1.5,1.5,0,0,0,709,186V176.58a25.4,25.4,0,0,0,10.855-11.439A1.492,1.492,0,0,0,720,164.5v-3C720,157.323,708.519,157,705,157Zm0,3c5.922,0,9.854.838,11.423,1.5-1.569.661-5.5,1.5-11.423,1.5s-9.855-.838-11.423-1.5C695.145,160.837,699.078,160,705,160Zm1.838,14.322a1.5,1.5,0,0,0-.838,1.345v9.881a1.388,1.388,0,0,1-2,0v-9.881a1.5,1.5,0,0,0-.838-1.345,22.4,22.4,0,0,1-9.941-9.76C696.89,165.857,702.678,166,705,166s8.11-.141,11.779-1.437A22.4,22.4,0,0,1,706.838,174.321Z" transform="translate(-690 -157)"/>
</svg>
