<?xml version="1.0" encoding="UTF-8" standalone="no"?>
<svg width="846px" height="1024px" viewBox="0 0 846 1024" version="1.1" xmlns="http://www.w3.org/2000/svg" xmlns:xlink="http://www.w3.org/1999/xlink">
    <!-- Generator: Sketch 39.1 (31720) - http://www.bohemiancoding.com/sketch -->
    <title>Home</title>
    <desc>Created with Sketch.</desc>
    <defs></defs>
    <g id="home" stroke="none" stroke-width="1" fill="none" fill-rule="evenodd">
        <g id="New-Slice-@2x" transform="translate(-89.000000, 0.000000)" fill="#298eff">
            <path d="M512,119.285419 L837.099998,439.459033 L837.099998,927.947916 L674.549999,927.947916 L674.549999,703.826386 C674.549999,668.460985 645.439554,639.791663 609.529999,639.791663 L414.470001,639.791663 C378.560446,639.791663 349.450001,668.460985 349.450001,703.826386 L349.450001,927.947916 L186.900002,927.947916 L186.900002,439.459033 L512,119.285419 L512,119.285419 Z M540.73884,11.7391025 C533.121761,4.22343683 522.782241,0 512,0 C501.217759,0 490.878239,4.22343683 483.26116,11.7391025 L108.420863,380.899279 C96.2184346,392.913168 89.3650608,409.211074 89.3700027,426.203846 L89.3700027,959.965277 C89.3700027,995.330678 118.480448,1024 154.390002,1024 L381.960001,1024 C417.869555,1024 446.98,995.330678 446.98,959.965277 L446.98,735.843748 L577.02,735.843748 L577.02,959.965277 C577.02,995.330678 606.130445,1024 642.039999,1024 L869.609998,1024 C905.519552,1024 934.629997,995.330678 934.629997,959.965277 L934.629997,426.203846 C934.634939,409.211074 927.781565,392.913168 915.579137,380.899279 L540.73884,11.7391025 Z" id="Home"></path>
        </g>
    </g>
</svg>