<svg xmlns="http://www.w3.org/2000/svg" width="100" height="88" viewBox="0 0 100 88">
  <metadata><?xpacket begin="﻿" id="W5M0MpCehiHzreSzNTczkc9d"?>
<x:xmpmeta xmlns:x="adobe:ns:meta/" x:xmptk="Adobe XMP Core 5.6-c138 79.159824, 2016/09/14-01:09:01        ">
   <rdf:RDF xmlns:rdf="http://www.w3.org/1999/02/22-rdf-syntax-ns#">
      <rdf:Description rdf:about=""/>
   </rdf:RDF>
</x:xmpmeta>
                                                                                                    
                                                                                                    
                                                                                                    
                                                                                                    
                                                                                                    
                                                                                                    
                                                                                                    
                                                                                                    
                                                                                                    
                                                                                                    
                                                                                                    
                                                                                                    
                                                                                                    
                                                                                                    
                                                                                                    
                                                                                                    
                                                                                                    
                                                                                                    
                                                                                                    
                                                                                                    
                           
<?xpacket end="w"?></metadata>
<defs>
    <style>
      .cls-1 {
        fill: #aab9ca;
        fill-rule: evenodd;
      }
    </style>
  </defs>
  <path id="watch" class="cls-1" d="M662.581,282.156l3.631,5.55c-3.313,2.225-4.789,7.695-4.781,12.129,0.006,3.451,1.6,8.647,4.766,11.535a41.312,41.312,0,0,0-7.325,1.393,23.919,23.919,0,0,1-4.007-12.924C654.854,293.8,656.876,285.986,662.581,282.156Zm-7.829,33.463s4.732-3.025,15.238-3.4c10.353-.37,15.249,3.383,15.249,3.383,0.521,0.208.454,0.379-.148,0.38L654.9,316C654.3,316,654.232,315.828,654.752,315.619Zm-2.846-.21,1.6-.983,32.971-.019,1.606,0.981L689,318.12l-0.953.88H651.726L651,318.143Zm13.138-11.135H683.2l1.2,0.724-1.2,1.117h-18.16l-1.068-1.1Zm1.927,2.473,14.446-.009,0.767,0.776-0.8.442H666.86l-0.654-.432Zm-5.009-33.4,2.134-1.428,3.927,0.564,10.5,16.113-1.03,3.881-2.134,1.428-3.927-.564-10.5-16.113Zm-1.634-2.221,1.8-1.129,2.311,0.551-0.541,2.342-1.8,1.128-2.311-.55ZM675,295.925l4.848-3.548,2.038,0.335-0.328,2.065-4.849,3.547-2.037-.334Zm40.736,8.732c-0.013,0-.026,0-0.04,0C715.676,304.036,716,304,716,304H699s-0.009,12.6,2.358,14.984h12.723a8.341,8.341,0,0,0,1.2-3.731c0.15,0.013.3,0.023,0.454,0.023A5.31,5.31,0,0,0,715.733,304.657Zm0,9.028c-0.089,0,.355.321,0.267,0.315a68.737,68.737,0,0,0-.025-8.195C715.728,306.25,716,306,716,306c2.032,0,3.417,1.916,3.417,3.967A3.7,3.7,0,0,1,715.733,313.685Zm-6.295-13.123a2.011,2.011,0,0,1,.008-2.748,2.8,2.8,0,0,0-.008-3.819l-0.576.545a2.01,2.01,0,0,1-.006,2.747,2.791,2.791,0,0,0,.006,3.819Zm-3.94,0a2.011,2.011,0,0,1,.008-2.748A2.794,2.794,0,0,0,705.5,294l-0.575.545a2.009,2.009,0,0,1-.009,2.747,2.794,2.794,0,0,0,.009,3.819ZM637,319H737v3H637v-3Zm75.987-48.009a17.99,17.99,0,1,1,18-17.99A18.017,18.017,0,0,1,712.987,270.991Zm0-33.976a15.986,15.986,0,1,0,16,15.986A16.009,16.009,0,0,0,712.987,237.015ZM713,242a1,1,0,0,1-1.008-1v-2a1.008,1.008,0,0,1,2.016,0v2A1,1,0,0,1,713,242Zm0,26a1,1,0,0,1-1.008-1v-2a1.008,1.008,0,0,1,2.016,0v2A1,1,0,0,1,713,268Zm13.99-14h-2a1,1,0,0,1,0-2h2A1,1,0,0,1,726.988,254Zm-25.98,0h-2a1,1,0,0,1,0-2h2A1,1,0,0,1,701.008,254Zm11.932,0.273a0.994,0.994,0,0,1-.949-1.031v-7.212a0.952,0.952,0,1,1,1.9,0v7.212A0.994,0.994,0,0,1,712.94,254.274ZM720.059,262a0.908,0.908,0,0,1-.671-0.3l-7.119-7.729a1.091,1.091,0,0,1,0-1.456,0.894,0.894,0,0,1,1.342,0l7.119,7.727a1.094,1.094,0,0,1,0,1.458A0.91,0.91,0,0,1,720.059,262Z" transform="translate(-637 -234.5)"/>
</svg>
